<svg xmlns="http://www.w3.org/2000/svg" xmlns:xlink="http://www.w3.org/1999/xlink" viewBox="0 0 67.06 66.22"><defs><style>.cls-1{isolation:isolate;}.cls-2{fill:#fff;}.cls-3{fill:url(#linear-gradient);}.cls-4{fill:url(#linear-gradient-2);}.cls-5{fill:#9f9f9f;}.cls-6{mix-blend-mode:color-burn;fill:url(#radial-gradient);}</style><linearGradient id="linear-gradient" x1="17.09" y1="59.46" x2="56.92" y2="8.73" gradientUnits="userSpaceOnUse"><stop offset="0" stop-color="#575757"/><stop offset="1" stop-color="#a6a6a6"/></linearGradient><linearGradient id="linear-gradient-2" x1="26.42" y1="66.79" x2="66.26" y2="16.06" xlink:href="#linear-gradient"/><radialGradient id="radial-gradient" cx="32.2" cy="34.02" r="32.2" gradientUnits="userSpaceOnUse"><stop offset="0.53" stop-color="#ababab"/><stop offset="0.59" stop-color="#bebebe"/><stop offset="0.69" stop-color="#dadada"/><stop offset="0.8" stop-color="#efefef"/><stop offset="0.9" stop-color="#fbfbfb"/><stop offset="1" stop-color="#fff"/></radialGradient></defs><g class="cls-1"><g id="Layer_1" data-name="Layer 1"><circle class="cls-2" cx="42.67" cy="36.39" r="23.76" transform="translate(-21.34 36.64) rotate(-45)"/><path class="cls-3" d="M11.85,29.46a2.25,2.25,0,0,0,1.84-4,31,31,0,0,1,58,0A2.24,2.24,0,1,0,72.78,25a32.17,32.17,0,0,0-60.22,0,2.25,2.25,0,0,0-.71,4.43Z" transform="translate(-8.11 -4.19)"/><path class="cls-4" d="M73.44,43.54a2.25,2.25,0,0,0-1.87,4,31,31,0,0,1-57.8,0,2.25,2.25,0,1,0-3.45-1.25A2.28,2.28,0,0,0,12.64,48,32.18,32.18,0,0,0,72.7,48a2.26,2.26,0,0,0,.74-4.43Z" transform="translate(-8.11 -4.19)"/><path class="cls-5" d="M36.33,44.36a5.32,5.32,0,0,1-4.58-2.08,9.24,9.24,0,0,1-1.52-5.55,9.24,9.24,0,0,1,1.52-5.55,5.31,5.31,0,0,1,4.58-2.07,5.3,5.3,0,0,1,4.57,2.07,9.24,9.24,0,0,1,1.52,5.55,9.24,9.24,0,0,1-1.52,5.55A5.31,5.31,0,0,1,36.33,44.36ZM34.15,33.18a7.86,7.86,0,0,0-.69,3.56,7.88,7.88,0,0,0,.69,3.57,2.43,2.43,0,0,0,4.35,0,7.88,7.88,0,0,0,.69-3.57,7.86,7.86,0,0,0-.69-3.56,2.43,2.43,0,0,0-4.35,0Z" transform="translate(-8.11 -4.19)"/><path class="cls-5" d="M44.34,32.25v-2.8h9v2.27l-3,3.44a4.29,4.29,0,0,1,2.74,1.49,4.2,4.2,0,0,1,1,2.75A4.49,4.49,0,0,1,52.49,43a6,6,0,0,1-4,1.32,8.72,8.72,0,0,1-4.95-1.73L44.87,40a6.66,6.66,0,0,0,3.73,1.48A2.59,2.59,0,0,0,50.23,41a1.64,1.64,0,0,0,.65-1.4,1.73,1.73,0,0,0-.74-1.46,3.49,3.49,0,0,0-2-.53,6.93,6.93,0,0,0-2,.4V35.58L49,32.25Z" transform="translate(-8.11 -4.19)"/><circle class="cls-6" cx="32.2" cy="34.02" r="32.2"/></g></g></svg>