<svg xmlns="http://www.w3.org/2000/svg" xmlns:xlink="http://www.w3.org/1999/xlink" viewBox="0 0 64.99 65.3"><defs><style>.cls-1{isolation:isolate;}.cls-2{mix-blend-mode:color-burn;fill:url(#radial-gradient);}.cls-3{fill:#fff;}.cls-4{fill:url(#linear-gradient);}.cls-5{fill:url(#linear-gradient-2);}.cls-6{fill:#ffb800;}</style><radialGradient id="radial-gradient" cx="32.5" cy="33.11" r="32.2" gradientUnits="userSpaceOnUse"><stop offset="0.53" stop-color="#ababab"/><stop offset="0.59" stop-color="#bebebe"/><stop offset="0.69" stop-color="#dadada"/><stop offset="0.8" stop-color="#efefef"/><stop offset="0.9" stop-color="#fbfbfb"/><stop offset="1" stop-color="#fff"/></radialGradient><linearGradient id="linear-gradient" x1="14.73" y1="60.38" x2="54.56" y2="9.65" gradientUnits="userSpaceOnUse"><stop offset="0" stop-color="#ff6f00"/><stop offset="1" stop-color="#ffd500"/></linearGradient><linearGradient id="linear-gradient-2" x1="24.06" y1="67.71" x2="63.89" y2="16.97" xlink:href="#linear-gradient"/></defs><g class="cls-1"><g id="Layer_1" data-name="Layer 1"><circle class="cls-2" cx="32.5" cy="33.11" r="32.2"/><circle class="cls-3" cx="40.31" cy="37.3" r="23.76" transform="translate(-13.07 62.86) rotate(-76.72)"/><path class="cls-4" d="M9.48,30.38a2.26,2.26,0,0,0,2.77-1.59,2.23,2.23,0,0,0-.92-2.45,31,31,0,0,1,58,0,2.25,2.25,0,0,0,1.84,4,2.26,2.26,0,0,0-.71-4.44,32.18,32.18,0,0,0-60.22,0,2.26,2.26,0,0,0-.72,4.44Z" transform="translate(-7.81 -5.11)"/><path class="cls-5" d="M71.08,44.45a2.25,2.25,0,0,0-1.87,4,31,31,0,0,1-57.8,0,2.24,2.24,0,1,0-1.13.4,32.18,32.18,0,0,0,60.06,0,2.26,2.26,0,0,0,.74-4.43Z" transform="translate(-7.81 -5.11)"/><path class="cls-6" d="M33.55,45.27A5.27,5.27,0,0,1,29,43.19a9.12,9.12,0,0,1-1.52-5.54A9.13,9.13,0,0,1,29,32.1,5.3,5.3,0,0,1,33.55,30a5.32,5.32,0,0,1,4.58,2.08,9.2,9.2,0,0,1,1.52,5.55,9.19,9.19,0,0,1-1.52,5.54A5.29,5.29,0,0,1,33.55,45.27ZM31.38,34.09a7.87,7.87,0,0,0-.7,3.57,7.85,7.85,0,0,0,.7,3.56,2.42,2.42,0,0,0,4.34,0,7.72,7.72,0,0,0,.7-3.56,7.74,7.74,0,0,0-.7-3.57,2.42,2.42,0,0,0-4.34,0Z" transform="translate(-7.81 -5.11)"/><path class="cls-6" d="M47.45,32.85a2.57,2.57,0,0,0-2.12.92,4.69,4.69,0,0,0-.92,2.5,5.23,5.23,0,0,1,2.91-.89,4.74,4.74,0,0,1,3.45,1.35,4.8,4.8,0,0,1,1.38,3.59,4.63,4.63,0,0,1-1.48,3.6,5.36,5.36,0,0,1-3.75,1.35,5.79,5.79,0,0,1-2.71-.6A4.37,4.37,0,0,1,42.43,43a10,10,0,0,1-1.26-5.23,11.54,11.54,0,0,1,.49-3.55A6,6,0,0,1,43,31.79,5.55,5.55,0,0,1,47.2,30a6.16,6.16,0,0,1,2,.31,6.53,6.53,0,0,1,1.44.62,12.89,12.89,0,0,1,1.12.8l-1.56,2.32-.37-.34a4.44,4.44,0,0,0-1-.54A3.19,3.19,0,0,0,47.45,32.85ZM47,38.16a2.46,2.46,0,0,0-1.65.58,1.92,1.92,0,0,0-.66,1.51,2.22,2.22,0,0,0,.63,1.59,2.07,2.07,0,0,0,1.58.67,2.22,2.22,0,0,0,1.58-.59,2,2,0,0,0,.64-1.53,2.29,2.29,0,0,0-.57-1.58A2,2,0,0,0,47,38.16Z" transform="translate(-7.81 -5.11)"/></g></g></svg>