<svg xmlns="http://www.w3.org/2000/svg" xmlns:xlink="http://www.w3.org/1999/xlink" viewBox="0 0 64.99 66.73"><defs><style>.cls-1{isolation:isolate;}.cls-2{mix-blend-mode:color-burn;fill:url(#radial-gradient);}.cls-3{fill:#fff;}.cls-4{fill:url(#linear-gradient);}.cls-5{fill:url(#linear-gradient-2);}.cls-6{fill:#14affe;}</style><radialGradient id="radial-gradient" cx="32.5" cy="34.53" r="32.2" gradientUnits="userSpaceOnUse"><stop offset="0.53" stop-color="#ababab"/><stop offset="0.59" stop-color="#bebebe"/><stop offset="0.69" stop-color="#dadada"/><stop offset="0.8" stop-color="#efefef"/><stop offset="0.9" stop-color="#fbfbfb"/><stop offset="1" stop-color="#fff"/></radialGradient><linearGradient id="linear-gradient" x1="14.73" y1="58.96" x2="54.56" y2="8.22" gradientUnits="userSpaceOnUse"><stop offset="0" stop-color="#007aff"/><stop offset="1" stop-color="#1dc8fe"/></linearGradient><linearGradient id="linear-gradient-2" x1="24.06" y1="66.28" x2="63.89" y2="15.55" xlink:href="#linear-gradient"/></defs><g class="cls-1"><g id="Layer_1" data-name="Layer 1"><circle class="cls-2" cx="32.5" cy="34.53" r="32.2"/><circle class="cls-3" cx="40.31" cy="35.88" r="23.76" transform="translate(-11.68 63.18) rotate(-76.72)"/><path class="cls-4" d="M9.48,29a2.26,2.26,0,0,0,1.85-4.05,31,31,0,0,1,58,0,2.24,2.24,0,1,0,1.13-.39,32.17,32.17,0,0,0-60.22,0A2.26,2.26,0,0,0,9.48,29Z" transform="translate(-7.81 -3.68)"/><path class="cls-5" d="M71.08,43a2.25,2.25,0,0,0-1.87,4,31,31,0,0,1-57.8,0,2.24,2.24,0,1,0-1.13.4,32.18,32.18,0,0,0,60.06,0A2.26,2.26,0,0,0,71.08,43Z" transform="translate(-7.81 -3.68)"/><path class="cls-6" d="M33.43,43.85a5.29,5.29,0,0,1-4.58-2.08,9.2,9.2,0,0,1-1.52-5.55,9.19,9.19,0,0,1,1.52-5.54,5.29,5.29,0,0,1,4.58-2.08A5.28,5.28,0,0,1,38,30.68a9.12,9.12,0,0,1,1.52,5.54A9.13,9.13,0,0,1,38,41.77,5.28,5.28,0,0,1,33.43,43.85ZM31.25,32.67a7.86,7.86,0,0,0-.69,3.56,7.88,7.88,0,0,0,.69,3.57,2.43,2.43,0,0,0,4.35,0,7.87,7.87,0,0,0,.7-3.57,7.85,7.85,0,0,0-.7-3.56,2.43,2.43,0,0,0-4.35,0Z" transform="translate(-7.81 -3.68)"/><path class="cls-6" d="M43,29.76a6.34,6.34,0,0,1,7.31,0,3.52,3.52,0,0,1,1.45,2.86,3.85,3.85,0,0,1-1.31,2.92,4.45,4.45,0,0,1,1.84,3.71,4.15,4.15,0,0,1-1.56,3.27,6,6,0,0,1-4.07,1.33,6,6,0,0,1-4.07-1.33A4.15,4.15,0,0,1,41,39.25a4.46,4.46,0,0,1,1.83-3.71,3.92,3.92,0,0,1-1.33-2.93A3.5,3.5,0,0,1,43,29.76ZM45,40.61a2.81,2.81,0,0,0,3.2,0A1.63,1.63,0,0,0,49,39.17a1.67,1.67,0,0,0-.72-1.46,2.84,2.84,0,0,0-3.25,0,1.69,1.69,0,0,0-.71,1.46A1.61,1.61,0,0,0,45,40.61Zm.2-6.44a2.21,2.21,0,0,0,2.8,0,1.62,1.62,0,0,0,0-2.51,2.07,2.07,0,0,0-1.41-.51,2.12,2.12,0,0,0-1.42.51,1.59,1.59,0,0,0-.59,1.25A1.57,1.57,0,0,0,45.23,34.17Z" transform="translate(-7.81 -3.68)"/></g></g></svg>