<svg xmlns="http://www.w3.org/2000/svg" xmlns:xlink="http://www.w3.org/1999/xlink" viewBox="0 0 66.12 66.49"><defs><style>.cls-1{isolation:isolate;}.cls-2{mix-blend-mode:color-burn;fill:url(#radial-gradient);}.cls-3{fill:#fff;}.cls-4{fill:url(#linear-gradient);}.cls-5{fill:url(#linear-gradient-2);}.cls-6{fill:#fc2730;}</style><radialGradient id="radial-gradient" cx="32.2" cy="34.29" r="32.2" gradientUnits="userSpaceOnUse"><stop offset="0.53" stop-color="#ababab"/><stop offset="0.59" stop-color="#bebebe"/><stop offset="0.69" stop-color="#dadada"/><stop offset="0.8" stop-color="#efefef"/><stop offset="0.9" stop-color="#fbfbfb"/><stop offset="1" stop-color="#fff"/></radialGradient><linearGradient id="linear-gradient" x1="17.31" y1="61.28" x2="57.14" y2="10.55" gradientUnits="userSpaceOnUse"><stop offset="0" stop-color="#cd0000"/><stop offset="1" stop-color="#ff2a33"/></linearGradient><linearGradient id="linear-gradient-2" x1="26.64" y1="68.61" x2="66.48" y2="17.88" xlink:href="#linear-gradient"/></defs><g class="cls-1"><g id="Layer_1" data-name="Layer 1"><circle class="cls-2" cx="32.2" cy="34.29" r="32.2"/><circle class="cls-3" cx="42.89" cy="38.2" r="23.76" transform="translate(-23.72 35.51) rotate(-45)"/><path class="cls-4" d="M12.07,31.28a2.25,2.25,0,0,0,1.84-4,31,31,0,0,1,58,0,2.25,2.25,0,0,0,1.84,4A2.25,2.25,0,0,0,73,26.85a32.17,32.17,0,0,0-60.22,0,2.25,2.25,0,0,0-.71,4.43Z" transform="translate(-9.26 -6.01)"/><path class="cls-5" d="M73.66,45.36a2.25,2.25,0,0,0-1.87,4,31,31,0,0,1-57.8,0,2.26,2.26,0,1,0-1.13.39,32.18,32.18,0,0,0,60.06,0,2.25,2.25,0,0,0,.74-4.42Z" transform="translate(-9.26 -6.01)"/><path class="cls-6" d="M38.53,46.17A5.29,5.29,0,0,1,34,44.09a9.19,9.19,0,0,1-1.52-5.54A9.24,9.24,0,0,1,34,33a5.31,5.31,0,0,1,4.58-2.07A5.29,5.29,0,0,1,43.1,33a9.17,9.17,0,0,1,1.52,5.55,9.12,9.12,0,0,1-1.52,5.54A5.27,5.27,0,0,1,38.53,46.17ZM36.36,35a7.76,7.76,0,0,0-.7,3.57,7.69,7.69,0,0,0,.7,3.56,2.42,2.42,0,0,0,4.34,0,7.82,7.82,0,0,0,.7-3.56A7.9,7.9,0,0,0,40.7,35a2.43,2.43,0,0,0-4.34,0Z" transform="translate(-9.26 -6.01)"/><path class="cls-6" d="M45.61,31.26h6V46H48.42V34.07H45.61Z" transform="translate(-9.26 -6.01)"/></g></g></svg>