<svg xmlns="http://www.w3.org/2000/svg" xmlns:xlink="http://www.w3.org/1999/xlink" viewBox="0 0 65 64.4"><defs><style>.cls-1{isolation:isolate;}.cls-2{mix-blend-mode:color-burn;fill:url(#radial-gradient);}.cls-3{fill:#fff;}.cls-4{fill:url(#linear-gradient);}.cls-5{fill:url(#linear-gradient-2);}.cls-6{fill:#8038d2;}</style><radialGradient id="radial-gradient" cx="32.81" cy="32.2" r="32.2" gradientUnits="userSpaceOnUse"><stop offset="0.53" stop-color="#ababab"/><stop offset="0.59" stop-color="#bebebe"/><stop offset="0.69" stop-color="#dadada"/><stop offset="0.8" stop-color="#efefef"/><stop offset="0.9" stop-color="#fbfbfb"/><stop offset="1" stop-color="#fff"/></radialGradient><linearGradient id="linear-gradient" x1="14.41" y1="61.29" x2="54.25" y2="10.56" gradientUnits="userSpaceOnUse"><stop offset="0" stop-color="#450c67"/><stop offset="1" stop-color="#984bff"/></linearGradient><linearGradient id="linear-gradient-2" x1="23.75" y1="68.62" x2="63.58" y2="17.88" xlink:href="#linear-gradient"/></defs><g class="cls-1"><g id="Layer_1" data-name="Layer 1"><circle class="cls-2" cx="32.81" cy="32.2" r="32.2"/><circle class="cls-3" cx="40" cy="38.21" r="23.76" transform="translate(-22.81 33.46) rotate(-45)"/><path class="cls-4" d="M9.17,31.29a2.26,2.26,0,0,0,2.77-1.59A2.23,2.23,0,0,0,11,27.25a31,31,0,0,1,58,0,2.25,2.25,0,0,0,1.84,4,2.25,2.25,0,0,0-.71-4.43,32.17,32.17,0,0,0-60.22,0,2.26,2.26,0,0,0-.72,4.43Z" transform="translate(-7.5 -6.01)"/><path class="cls-5" d="M70.77,45.36A2.27,2.27,0,0,0,68,46.94a2.24,2.24,0,0,0,.91,2.45,31,31,0,0,1-57.8,0,2.24,2.24,0,1,0-1.13.4,32.18,32.18,0,0,0,60.06,0,2.26,2.26,0,0,0,.74-4.43Z" transform="translate(-7.5 -6.01)"/><path class="cls-6" d="M33.6,46.18A5.27,5.27,0,0,1,29,44.1a9.12,9.12,0,0,1-1.52-5.54A9.17,9.17,0,0,1,29,33a5.3,5.3,0,0,1,4.57-2.08A5.32,5.32,0,0,1,38.18,33a9.24,9.24,0,0,1,1.52,5.55,9.19,9.19,0,0,1-1.52,5.54A5.29,5.29,0,0,1,33.6,46.18ZM31.43,35a7.87,7.87,0,0,0-.7,3.57,7.85,7.85,0,0,0,.7,3.56,2.42,2.42,0,0,0,4.34,0,7.72,7.72,0,0,0,.7-3.56,7.74,7.74,0,0,0-.7-3.57,2.42,2.42,0,0,0-4.34,0Z" transform="translate(-7.5 -6.01)"/><path class="cls-6" d="M50.7,31.27v2.85H44.88v2.47a5.3,5.3,0,0,1,1.5-.19,5.58,5.58,0,0,1,3.67,1.28,4.29,4.29,0,0,1,1.54,3.47A4.63,4.63,0,0,1,50,44.76a5.67,5.67,0,0,1-3.93,1.42,6.47,6.47,0,0,1-5-2.21l1.73-2.41c.12.13.29.28.5.47a7.24,7.24,0,0,0,1.16.72,3.47,3.47,0,0,0,1.69.46,2.39,2.39,0,0,0,1.5-.51,2,2,0,0,0-.06-3,2.9,2.9,0,0,0-1.82-.54,5.61,5.61,0,0,0-2.59.8l-1.37-1.48V31.27Z" transform="translate(-7.5 -6.01)"/></g></g></svg>