<svg xmlns="http://www.w3.org/2000/svg" xmlns:xlink="http://www.w3.org/1999/xlink" viewBox="0 0 64.99 64.4"><defs><style>.cls-1{isolation:isolate;}.cls-2{fill:#fff;}.cls-3{fill:url(#linear-gradient);}.cls-4{fill:url(#linear-gradient-2);}.cls-5{fill:#0077cb;}.cls-6{mix-blend-mode:color-burn;fill:url(#radial-gradient);}</style><linearGradient id="linear-gradient" x1="14.67" y1="61.24" x2="54.51" y2="10.51" gradientUnits="userSpaceOnUse"><stop offset="0" stop-color="#003575"/><stop offset="1" stop-color="#007dd4"/></linearGradient><linearGradient id="linear-gradient-2" x1="24" y1="68.57" x2="63.84" y2="17.84" xlink:href="#linear-gradient"/><radialGradient id="radial-gradient" cx="32.56" cy="32.2" r="32.2" gradientUnits="userSpaceOnUse"><stop offset="0.53" stop-color="#ababab"/><stop offset="0.59" stop-color="#bebebe"/><stop offset="0.69" stop-color="#dadada"/><stop offset="0.8" stop-color="#efefef"/><stop offset="0.9" stop-color="#fbfbfb"/><stop offset="1" stop-color="#fff"/></radialGradient></defs><g class="cls-1"><g id="Layer_1" data-name="Layer 1"><circle class="cls-2" cx="40.26" cy="38.16" r="23.76" transform="translate(-13.9 62.61) rotate(-76.72)"/><path class="cls-3" d="M9.43,31.24a2.25,2.25,0,0,0,1.85-4,31,31,0,0,1,58,0,2.25,2.25,0,1,0,1.14-.39,32.18,32.18,0,0,0-60.23,0,2.26,2.26,0,0,0-.71,4.43Z" transform="translate(-7.76 -5.97)"/><path class="cls-4" d="M71,45.32a2.25,2.25,0,0,0-1.88,4,31,31,0,0,1-57.79,0,2.24,2.24,0,1,0-1.13.4,32.18,32.18,0,0,0,60.05,0A2.26,2.26,0,0,0,71,45.32Z" transform="translate(-7.76 -5.97)"/><path class="cls-5" d="M33.76,46.13a5.29,5.29,0,0,1-4.57-2.07,9.17,9.17,0,0,1-1.52-5.55A9.17,9.17,0,0,1,29.19,33a5.29,5.29,0,0,1,4.57-2.07A5.31,5.31,0,0,1,38.34,33a9.24,9.24,0,0,1,1.52,5.55,9.24,9.24,0,0,1-1.52,5.55A5.31,5.31,0,0,1,33.76,46.13ZM31.59,35a7.82,7.82,0,0,0-.7,3.56,7.82,7.82,0,0,0,.7,3.56,2.42,2.42,0,0,0,4.34,0,7.69,7.69,0,0,0,.7-3.56,7.69,7.69,0,0,0-.7-3.56,2.42,2.42,0,0,0-4.34,0Z" transform="translate(-7.76 -5.97)"/><path class="cls-5" d="M47.61,37a2.7,2.7,0,0,0,.56-1.53,1.71,1.71,0,0,0-.49-1.23,1.67,1.67,0,0,0-1.24-.5q-1.39,0-2.64,2l-2.64-1.56a8.19,8.19,0,0,1,2.27-2.42,5.53,5.53,0,0,1,3.14-.82,5.07,5.07,0,0,1,3.36,1.21,4.09,4.09,0,0,1,1.44,3.3,4.37,4.37,0,0,1-.58,2.18,13.79,13.79,0,0,1-2.14,2.67L46,43h5.82v3H41.42V43.52l4.32-4.43A20.11,20.11,0,0,0,47.61,37Z" transform="translate(-7.76 -5.97)"/><circle class="cls-6" cx="32.56" cy="32.2" r="32.2"/></g></g></svg>