<svg xmlns="http://www.w3.org/2000/svg" xmlns:xlink="http://www.w3.org/1999/xlink" viewBox="0 0 64.99 64.4"><defs><style>.cls-1{isolation:isolate;}.cls-2{mix-blend-mode:color-burn;fill:url(#radial-gradient);}.cls-3{fill:#fff;}.cls-4{fill:url(#linear-gradient);}.cls-5{fill:url(#linear-gradient-2);}.cls-6{fill:#00bd8e;}</style><radialGradient id="radial-gradient" cx="32.5" cy="32.2" r="32.2" gradientUnits="userSpaceOnUse"><stop offset="0.53" stop-color="#ababab"/><stop offset="0.59" stop-color="#bebebe"/><stop offset="0.69" stop-color="#dadada"/><stop offset="0.8" stop-color="#efefef"/><stop offset="0.9" stop-color="#fbfbfb"/><stop offset="1" stop-color="#fff"/></radialGradient><linearGradient id="linear-gradient" x1="14.73" y1="61.29" x2="54.56" y2="10.56" gradientUnits="userSpaceOnUse"><stop offset="0" stop-color="#006834"/><stop offset="1" stop-color="#00c495"/></linearGradient><linearGradient id="linear-gradient-2" x1="24.06" y1="68.62" x2="63.89" y2="17.88" xlink:href="#linear-gradient"/></defs><g class="cls-1"><g id="Layer_1" data-name="Layer 1"><circle class="cls-2" cx="32.5" cy="32.2" r="32.2"/><circle class="cls-3" cx="40.31" cy="38.21" r="23.76" transform="translate(-13.96 62.65) rotate(-76.72)"/><path class="cls-4" d="M9.48,31.29a2.26,2.26,0,0,0,2.77-1.59,2.23,2.23,0,0,0-.92-2.45,31,31,0,0,1,58,0,2.25,2.25,0,0,0,1.84,4,2.25,2.25,0,0,0-.71-4.43,32.17,32.17,0,0,0-60.22,0,2.26,2.26,0,0,0-.72,4.43Z" transform="translate(-7.81 -6.01)"/><path class="cls-5" d="M71.08,45.36a2.27,2.27,0,0,0-2.78,1.58,2.24,2.24,0,0,0,.91,2.45,31,31,0,0,1-57.8,0,2.24,2.24,0,1,0-1.13.4,32.18,32.18,0,0,0,60.06,0,2.26,2.26,0,0,0,.74-4.43Z" transform="translate(-7.81 -6.01)"/><path class="cls-6" d="M34,46.18a5.29,5.29,0,0,1-4.58-2.08,9.19,9.19,0,0,1-1.52-5.54A9.24,9.24,0,0,1,29.42,33,5.32,5.32,0,0,1,34,30.93,5.31,5.31,0,0,1,38.57,33a9.24,9.24,0,0,1,1.52,5.55,9.19,9.19,0,0,1-1.52,5.54A5.28,5.28,0,0,1,34,46.18ZM31.82,35a7.88,7.88,0,0,0-.69,3.57,7.86,7.86,0,0,0,.69,3.56,2.43,2.43,0,0,0,4.35,0,7.86,7.86,0,0,0,.69-3.56A7.88,7.88,0,0,0,36.17,35a2.43,2.43,0,0,0-4.35,0Z" transform="translate(-7.81 -6.01)"/><path class="cls-6" d="M47.11,39.64V37.07h3.17v2.57h1.66v2.85H50.28V46H47.11V42.49H41.19V40l5.25-8.71H50l-5,8.37Z" transform="translate(-7.81 -6.01)"/></g></g></svg>