<svg xmlns="http://www.w3.org/2000/svg" viewBox="0 0 507.5 214.7"><g id="Layer_2" data-name="Layer 2"><g id="Layer_1-2" data-name="Layer 1"><path d="M331,174.37H249.3a2.06,2.06,0,0,1-2.05-1.75l-14.8-96.18a2.07,2.07,0,0,1,2.05-2.38h11a2.06,2.06,0,0,1,2,1.75l12.56,81.59a2.06,2.06,0,0,0,2,1.75h51.29a2.06,2.06,0,0,0,2-2.38c-1-6.29-3.72-24.18-6.64-43.19-3.64-23.66-11.59-24.67-16.36-24.67-6.81,0-9.15,5.57-11.57,12.41a2.07,2.07,0,0,1-2.84,1.18L267.9,97.65a2.09,2.09,0,0,1-1.09-2.48c3.59-12.08,8.95-21.11,23.4-21.11,6.79,0,28.2,2.66,33.9,39.7,4.64,30.15,7.9,51.37,9,58.23A2.07,2.07,0,0,1,331,174.37Z"/><path d="M330.17,87.52l-1.7-11.08a2.06,2.06,0,0,1,2-2.38h32.25c16.87,0,32.53,13.57,35.12,30.44l8.41,54.65h11.34a2.07,2.07,0,0,1,2,1.76L421.38,172a2.07,2.07,0,0,1-2.05,2.38h-74a2.07,2.07,0,0,1-2.05-1.75l-1.7-11.08a2.08,2.08,0,0,1,2.05-2.39h47.46l-8.41-54.65c-1.3-8.43-9.13-15.22-17.56-15.22H332.22A2.08,2.08,0,0,1,330.17,87.52Z"/><path d="M417.5,76.44a2.07,2.07,0,0,1,2.05-2.38H462c16.87,0,32.53,13.57,35.13,30.44L507.48,172a2.07,2.07,0,0,1-2.05,2.38h-11a2.06,2.06,0,0,1-2-1.75L481.87,104.5c-1.29-8.43-9.12-15.22-17.56-15.22H421.25a2.08,2.08,0,0,1-2.05-1.76Zm21.83,42.93L447.42,172a2.06,2.06,0,0,1-2,2.38h-11a2.06,2.06,0,0,1-2-1.75L424.2,120a2.08,2.08,0,0,1,2.05-2.39h11A2.08,2.08,0,0,1,439.33,119.37Z"/><path d="M207.17,68.43a4.51,4.51,0,0,1-4.44-3.81l-2.37-15.18H183.64a4.5,4.5,0,0,1,0-9h20.57a4.5,4.5,0,0,1,4.44,3.81l3,19a4.49,4.49,0,0,1-3.75,5.14A4.14,4.14,0,0,1,207.17,68.43Z"/><path d="M223.66,174.23H149.42a4.5,4.5,0,0,1,0-9h69L207.14,92.91A4.5,4.5,0,1,1,216,91.53L228.1,169a4.51,4.51,0,0,1-4.44,5.2Z"/><path d="M44.69,91.1A4,4,0,0,1,44,91a4.49,4.49,0,0,1-3.76-5.13L48,35.48a4.51,4.51,0,0,1,5.09-3.77l49.71,7.18a4.5,4.5,0,0,1-1.29,8.91L56.21,41.26l-7.08,46A4.5,4.5,0,0,1,44.69,91.1Z"/><path d="M149.42,174.23a4.51,4.51,0,0,1-3.51-7.32l71.42-89-83.44-67L105.66,46.15a4.5,4.5,0,1,1-7-5.61l31-38.85a4.53,4.53,0,0,1,3-1.66A4.46,4.46,0,0,1,136,1l90.46,72.67a4.5,4.5,0,0,1,.7,6.32l-74.24,92.56A4.47,4.47,0,0,1,149.42,174.23Z"/><path d="M48.56,214.7a4.36,4.36,0,0,1-1.77-.37,4.48,4.48,0,0,1-2.41-2.48L.32,100.46A4.49,4.49,0,0,1,3,94.57L43.49,80a4.5,4.5,0,1,1,3,8.46l-36.15,13,40.7,102.87,96.66-38.79a4.5,4.5,0,0,1,3.35,8.35L50.24,214.38A4.64,4.64,0,0,1,48.56,214.7Z"/><path d="M149.43,174.23a4.89,4.89,0,0,1-.66,0L35.52,157.64a4.5,4.5,0,0,1-3.82-5l8.85-69a4.52,4.52,0,0,1,2.76-3.6L77.75,66,98.67,40.49a4.52,4.52,0,0,1,4.15-1.6l64.74,9.75a4.52,4.52,0,0,1,3.78,5.12L153.87,170.39A4.5,4.5,0,0,1,149.43,174.23ZM41.19,149.38l104.45,15.25L161.77,56.88,104,48.18,84,72.6a4.48,4.48,0,0,1-1.79,1.31L49.14,87.4Z"/><path d="M149.42,174.23a4.51,4.51,0,0,1-2.78-1L55.89,102a4.49,4.49,0,0,1-.8-6.26L76.92,67a4.53,4.53,0,0,1,2-1.48l25.33-9.69A4.5,4.5,0,0,1,110,58.39l43.59,109.67a4.51,4.51,0,0,1-4.19,6.17ZM64.93,97.62l74.15,58.25-35.79-90-20,7.65Z"/><circle cx="361.03" cy="124.94" r="5"/><circle cx="462.54" cy="173.74" r="3.63"/><circle cx="476.55" cy="173.74" r="3.63"/><circle cx="469.55" cy="183.01" r="3.63"/></g></g></svg>